<?xml version="1.0" encoding="UTF-8" standalone="no"?>
<svg
   xmlns:dc="http://purl.org/dc/elements/1.1/"
   xmlns:cc="http://creativecommons.org/ns#"
   xmlns:rdf="http://www.w3.org/1999/02/22-rdf-syntax-ns#"
   xmlns:svg="http://www.w3.org/2000/svg"
   xmlns="http://www.w3.org/2000/svg"
   xmlns:sodipodi="http://sodipodi.sourceforge.net/DTD/sodipodi-0.dtd"
   xmlns:inkscape="http://www.inkscape.org/namespaces/inkscape"
   width="200"
   height="200"
   version="1.1"
   id="svg23"
   sodipodi:docname="mongoframework-min.svg"
   inkscape:version="0.92.4 (5da689c313, 2019-01-14)">
  <metadata
     id="metadata27">
    <rdf:RDF>
      <cc:Work
         rdf:about="">
        <dc:format>image/svg+xml</dc:format>
        <dc:type
           rdf:resource="http://purl.org/dc/dcmitype/StillImage" />
        <dc:title></dc:title>
      </cc:Work>
    </rdf:RDF>
  </metadata>
  <sodipodi:namedview
     pagecolor="#fffff0"
     bordercolor="#666666"
     borderopacity="1"
     objecttolerance="10"
     gridtolerance="10"
     guidetolerance="10"
     inkscape:pageopacity="0"
     inkscape:pageshadow="2"
     inkscape:window-width="1854"
     inkscape:window-height="1057"
     id="namedview25"
     showgrid="false"
     inkscape:pagecheckerboard="false"
     inkscape:zoom="3.337544"
     inkscape:cx="69.485572"
     inkscape:cy="93.636771"
     inkscape:window-x="58"
     inkscape:window-y="-8"
     inkscape:window-maximized="1"
     inkscape:current-layer="layer1" />
  <defs
     id="defs7">
    <linearGradient
       x1="151.733"
       y1="0"
       x2="0"
       y2="151.733"
       id="a"
       gradientTransform="matrix(0.94244,0,0,1.06107,3.118,19.764)"
       gradientUnits="userSpaceOnUse">
      <stop
         offset="0"
         stop-color="#00FF6D"
         id="stop2" />
      <stop
         offset="1"
         stop-color="#00FFCE"
         id="stop4" />
    </linearGradient>
    <filter
       style="color-interpolation-filters:sRGB;"
       inkscape:label="Drop Shadow"
       id="filter1146">
      <feFlood
         flood-opacity="1"
         flood-color="rgb(35,31,32)"
         result="flood"
         id="feFlood1136" />
      <feComposite
         in="flood"
         in2="SourceGraphic"
         operator="in"
         result="composite1"
         id="feComposite1138" />
      <feGaussianBlur
         in="composite1"
         stdDeviation="3.5"
         result="blur"
         id="feGaussianBlur1140" />
      <feOffset
         dx="1.38778e-16"
         dy="-2.77556e-17"
         result="offset"
         id="feOffset1142" />
      <feComposite
         in="SourceGraphic"
         in2="offset"
         operator="over"
         result="composite2"
         id="feComposite1144" />
    </filter>
  </defs>
  <g
     inkscape:groupmode="layer"
     id="layer2"
     inkscape:label="Layer 2" />
  <g
     inkscape:groupmode="layer"
     id="layer1"
     inkscape:label="Layer 1">
    <g
       id="g844"
       transform="translate(25.500044,4.7938897e-4)"
       style="filter:url(#filter1146)">
      <path
         inkscape:connector-curvature="0"
         id="path9"
         style="fill:url(#a);fill-rule:evenodd;stroke:none"
         d="m 74.619,19.764 c -39.283,0 -71.166,14.512 -71.496,32.471 q -0.005,0.068 -0.005,0.137 v 96.212 q 0,0.172 0.03,0.341 c 1.055,17.666 32.65,31.839 71.47,31.839 38.85,0 70.462,-14.194 71.474,-31.878 q 0.023,-0.15 0.023,-0.302 v -0.32 a 21.171,21.171 0 0 0 0,-0.505 v -32.506 a 21.17,21.17 0 0 0 0,-0.505 V 84.601 a 21.17,21.17 0 0 0 0,-0.504 V 52.769 l 0.002,-0.252 c 0.001,-18.09 -32.01,-32.753 -71.498,-32.753 z" />
      <path
         inkscape:connector-curvature="0"
         id="path11"
         style="fill:none;fill-rule:evenodd;stroke:#f4e8d2;stroke-width:5;stroke-linejoin:round"
         d="M 145.879,49.651 C 145.761,66.156 113.72,79.496 74.306,79.451 34.893,79.406 3.026,65.994 3.12,49.491 3.215,32.986 35.236,19.637 74.65,19.673 c 39.415,0.035 71.302,13.44 71.23,29.944" />
      <path
         inkscape:connector-curvature="0"
         id="path13"
         style="fill:none;fill-rule:evenodd;stroke:#f4e8d2;stroke-width:5;stroke-linejoin:round"
         d="m 145.879,150.526 c -0.116,16.505 -32.157,29.845 -71.571,29.8 C 34.894,180.283 3.025,166.871 3.12,150.366" />
      <path
         inkscape:connector-curvature="0"
         id="path15"
         style="fill:none;fill-rule:evenodd;stroke:#f4e8d2;stroke-width:5;stroke-linejoin:round"
         d="m 145.879,116.9 c -0.116,16.505 -32.157,29.845 -71.571,29.8 C 34.894,146.657 3.025,133.245 3.12,116.74" />
      <path
         inkscape:connector-curvature="0"
         id="path17"
         style="fill:none;fill-rule:evenodd;stroke:#f4e8d2;stroke-width:5;stroke-linejoin:round"
         d="M 145.879,83.275 C 145.763,99.78 113.722,113.12 74.308,113.076 34.894,113.031 3.025,99.619 3.12,83.115" />
      <path
         inkscape:connector-curvature="0"
         id="path19"
         style="fill:none;fill-rule:evenodd;stroke:#f4e8d2;stroke-width:5"
         d="M 3.12,150.373 3.122,49.774" />
      <path
         inkscape:connector-curvature="0"
         id="path21"
         style="fill:none;fill-rule:evenodd;stroke:#f4e8d2;stroke-width:5"
         d="M 145.88,150.53 V 49.616" />
    </g>
  </g>
</svg>
