<svg xmlns="http://www.w3.org/2000/svg" width="149" height="200"><defs><linearGradient x1="151.733" y1="0" x2="0" y2="151.733" id="a" gradientTransform="scale(.94244 1.06107)" gradientUnits="userSpaceOnUse"><stop offset="0" stop-color="#00FF6D"/><stop offset="1" stop-color="#00FFCE"/></linearGradient></defs><path d="M71.501 0C32.218 0 .335 14.512.005 32.471Q0 32.539 0 32.608v96.212q0 .172.03.341C1.085 146.827 32.68 161 71.5 161c38.85 0 70.462-14.194 71.474-31.878q.023-.15.023-.302v-.32a21.171 21.171 0 0 0 0-.505V95.489a21.17 21.17 0 0 0 0-.505V64.837a21.17 21.17 0 0 0 0-.504V33.005l.002-.252C143 14.663 110.989 0 71.501 0z" transform="translate(3.118 19.764)" style="fill:url(#a);fill-rule:evenodd;stroke:none"/><path d="M142.759 29.978c-.118 16.505-32.159 29.845-71.573 29.8C31.773 59.733-.094 46.321 0 29.818.095 13.313 32.116-.036 71.53 0c39.415.035 71.302 13.44 71.23 29.944" style="fill:none;fill-rule:evenodd;stroke:#f4e8d2;stroke-width:5;stroke-linejoin:round" transform="translate(3.12 19.673)"/><path d="M142.759.16c-.116 16.505-32.157 29.845-71.571 29.8C31.774 29.917-.095 16.505 0 0" transform="translate(3.12 150.366)" style="fill:none;fill-rule:evenodd;stroke:#f4e8d2;stroke-width:5;stroke-linejoin:round"/><path d="M142.759.16c-.116 16.505-32.157 29.845-71.571 29.8C31.774 29.917-.095 16.505 0 0" transform="translate(3.12 116.74)" style="fill:none;fill-rule:evenodd;stroke:#f4e8d2;stroke-width:5;stroke-linejoin:round"/><path d="M142.759.16c-.116 16.505-32.157 29.845-71.571 29.801C31.774 29.916-.095 16.504 0 0" transform="translate(3.12 83.115)" style="fill:none;fill-rule:evenodd;stroke:#f4e8d2;stroke-width:5;stroke-linejoin:round"/><path d="M0 100.599.002 0" transform="translate(3.12 49.774)" style="fill:none;fill-rule:evenodd;stroke:#f4e8d2;stroke-width:5"/><path d="M1 100.914V0" transform="translate(144.88 49.616)" style="fill:none;fill-rule:evenodd;stroke:#f4e8d2;stroke-width:5"/></svg>